<!DOCTYPE svg PUBLIC "-//W3C//DTD SVG 1.1//EN" "http://www.w3.org/Graphics/SVG/1.1/DTD/svg11.dtd">
<svg xmlns="http://www.w3.org/2000/svg" xmlns:xlink="http://www.w3.org/1999/xlink" width="431px" height="253px" version="1.1"><defs><clipPath id="mx-clip-35-27-120-28-0"><rect x="35" y="27" width="120" height="28"/></clipPath><clipPath id="mx-clip-5-27-20-28-0"><rect x="5" y="27" width="20" height="28"/></clipPath><clipPath id="mx-clip-35-62-120-24-0"><rect x="35" y="62" width="120" height="24"/></clipPath><clipPath id="mx-clip-35-88-120-24-0"><rect x="35" y="88" width="120" height="24"/></clipPath><clipPath id="mx-clip-35-161-120-28-0"><rect x="35" y="161" width="120" height="28"/></clipPath><clipPath id="mx-clip-5-161-20-28-0"><rect x="5" y="161" width="20" height="28"/></clipPath><clipPath id="mx-clip-35-196-120-24-0"><rect x="35" y="196" width="120" height="24"/></clipPath><clipPath id="mx-clip-35-222-120-24-0"><rect x="35" y="222" width="120" height="24"/></clipPath><clipPath id="mx-clip-305-27-120-28-0"><rect x="305" y="27" width="120" height="28"/></clipPath><clipPath id="mx-clip-275-27-20-28-0"><rect x="275" y="27" width="20" height="28"/></clipPath><clipPath id="mx-clip-305-62-120-24-0"><rect x="305" y="62" width="120" height="24"/></clipPath><clipPath id="mx-clip-275-62-20-24-0"><rect x="275" y="62" width="20" height="24"/></clipPath><clipPath id="mx-clip-305-88-120-24-0"><rect x="305" y="88" width="120" height="24"/></clipPath><clipPath id="mx-clip-275-88-20-24-0"><rect x="275" y="88" width="20" height="24"/></clipPath><clipPath id="mx-clip-305-114-120-24-0"><rect x="305" y="114" width="120" height="24"/></clipPath><clipPath id="mx-clip-305-140-120-24-0"><rect x="305" y="140" width="120" height="24"/></clipPath></defs><g transform="translate(0.5,0.5)"><rect x="0" y="0" width="160" height="110" fill="#ffffff" stroke="#4d4d4d" pointer-events="none"/><path d="M 0 26 L 0 0 L 160 0 L 160 26 Z" fill="#e0e0e0" stroke="#4d4d4d" stroke-miterlimit="10" pointer-events="none"/><g fill="#000000" font-family="Helvetica" text-anchor="middle" font-size="14px"><text x="79.5" y="18.5">DeliveryOrder</text></g><path d="M 0 26 M 160 26 M 160 56 L 0 56" fill="none" stroke="#000000" stroke-miterlimit="10" pointer-events="none"/><g fill="#000000" font-family="Helvetica" font-weight="bold" clip-path="url(#mx-clip-35-27-120-28-0)" font-size="12px"><text x="36.5" y="44.5">delivery_order_id</text></g><path d="M 0 26 M 30 26 L 30 56 M 0 56" fill="none" stroke="#000000" stroke-miterlimit="10" pointer-events="none"/><g fill="#000000" font-family="Helvetica" clip-path="url(#mx-clip-5-27-20-28-0)" font-size="12px"><text x="6.5" y="44.5">PK</text></g><path d="M 0 56 M 160 56 M 160 82 M 0 82" fill="none" stroke="#000000" stroke-miterlimit="10" pointer-events="none"/><g fill="#000000" font-family="Helvetica" clip-path="url(#mx-clip-35-62-120-24-0)" font-size="12px"><text x="36.5" y="74.5">order_id</text></g><path d="M 0 56 M 30 56 L 30 82 M 0 82" fill="none" stroke="#000000" stroke-miterlimit="10" pointer-events="none"/><path d="M 0 82 M 160 82 M 160 108 M 0 108" fill="none" stroke="#000000" stroke-miterlimit="10" pointer-events="none"/><g fill="#000000" font-family="Helvetica" clip-path="url(#mx-clip-35-88-120-24-0)" font-size="12px"><text x="36.5" y="100.5">serving_datetime</text></g><path d="M 0 82 M 30 82 L 30 108 M 0 108" fill="none" stroke="#000000" stroke-miterlimit="10" pointer-events="none"/><path d="M 0 108 M 160 108 M 160 110 M 0 110" fill="none" stroke="#000000" stroke-miterlimit="10" pointer-events="none"/><path d="M 0 108 M 30 108 L 30 110 M 0 110" fill="none" stroke="#000000" stroke-miterlimit="10" pointer-events="none"/><rect x="0" y="134" width="160" height="118" fill="#ffffff" stroke="#4d4d4d" pointer-events="none"/><path d="M 0 160 L 0 134 L 160 134 L 160 160 Z" fill="#e0e0e0" stroke="#4d4d4d" stroke-miterlimit="10" pointer-events="none"/><g fill="#000000" font-family="Helvetica" text-anchor="middle" font-size="14px"><text x="79.5" y="152.5">Meal</text></g><path d="M 0 160 M 160 160 M 160 190 L 0 190" fill="none" stroke="#000000" stroke-miterlimit="10" pointer-events="none"/><g fill="#000000" font-family="Helvetica" font-weight="bold" clip-path="url(#mx-clip-35-161-120-28-0)" font-size="12px"><text x="36.5" y="178.5">meal_id</text></g><path d="M 0 160 M 30 160 L 30 190 M 0 190" fill="none" stroke="#000000" stroke-miterlimit="10" pointer-events="none"/><g fill="#000000" font-family="Helvetica" clip-path="url(#mx-clip-5-161-20-28-0)" font-size="12px"><text x="6.5" y="178.5">PK</text></g><path d="M 0 190 M 160 190 M 160 216 M 0 216" fill="none" stroke="#000000" stroke-miterlimit="10" pointer-events="none"/><g fill="#000000" font-family="Helvetica" clip-path="url(#mx-clip-35-196-120-24-0)" font-size="12px"><text x="36.5" y="208.5">name</text></g><path d="M 0 190 M 30 190 L 30 216 M 0 216" fill="none" stroke="#000000" stroke-miterlimit="10" pointer-events="none"/><path d="M 0 216 M 160 216 M 160 242 M 0 242" fill="none" stroke="#000000" stroke-miterlimit="10" pointer-events="none"/><g fill="#000000" font-family="Helvetica" clip-path="url(#mx-clip-35-222-120-24-0)" font-size="12px"><text x="36.5" y="234.5">description</text></g><path d="M 0 216 M 30 216 L 30 242 M 0 242" fill="none" stroke="#000000" stroke-miterlimit="10" pointer-events="none"/><path d="M 0 242 M 160 242 M 160 252 M 0 252" fill="none" stroke="#000000" stroke-miterlimit="10" pointer-events="none"/><path d="M 0 242 M 30 242 L 30 252 M 0 252" fill="none" stroke="#000000" stroke-miterlimit="10" pointer-events="none"/><rect x="270" y="0" width="160" height="170" fill="#ffffff" stroke="#4d4d4d" pointer-events="none"/><path d="M 270 26 L 270 0 L 430 0 L 430 26 Z" fill="#e0e0e0" stroke="#4d4d4d" stroke-miterlimit="10" pointer-events="none"/><g fill="#000000" font-family="Helvetica" text-anchor="middle" font-size="14px"><text x="349.5" y="18.5">OrderItem</text></g><path d="M 270 26 M 430 26 M 430 56 L 270 56" fill="none" stroke="#000000" stroke-miterlimit="10" pointer-events="none"/><g fill="#000000" font-family="Helvetica" font-weight="bold" clip-path="url(#mx-clip-305-27-120-28-0)" font-size="12px"><text x="306.5" y="44.5">order_item_id</text></g><path d="M 270 26 M 300 26 L 300 56 M 270 56" fill="none" stroke="#000000" stroke-miterlimit="10" pointer-events="none"/><g fill="#000000" font-family="Helvetica" clip-path="url(#mx-clip-275-27-20-28-0)" font-size="12px"><text x="276.5" y="44.5">PK</text></g><path d="M 270 56 M 430 56 M 430 82 M 270 82" fill="none" stroke="#000000" stroke-miterlimit="10" pointer-events="none"/><g fill="#000000" font-family="Helvetica" clip-path="url(#mx-clip-305-62-120-24-0)" font-size="12px"><text x="306.5" y="74.5">delivery_order_id</text></g><path d="M 270 56 M 300 56 L 300 82 M 270 82" fill="none" stroke="#000000" stroke-miterlimit="10" pointer-events="none"/><g fill="#000000" font-family="Helvetica" clip-path="url(#mx-clip-275-62-20-24-0)" font-size="12px"><text x="276.5" y="74.5">FK</text></g><path d="M 270 82 M 430 82 M 430 108 M 270 108" fill="none" stroke="#000000" stroke-miterlimit="10" pointer-events="none"/><g fill="#000000" font-family="Helvetica" clip-path="url(#mx-clip-305-88-120-24-0)" font-size="12px"><text x="306.5" y="100.5">meal_id</text></g><path d="M 270 82 M 300 82 L 300 108 M 270 108" fill="none" stroke="#000000" stroke-miterlimit="10" pointer-events="none"/><g fill="#000000" font-family="Helvetica" clip-path="url(#mx-clip-275-88-20-24-0)" font-size="12px"><text x="276.5" y="100.5">FK</text></g><path d="M 270 108 M 430 108 M 430 134 M 270 134" fill="none" stroke="#000000" stroke-miterlimit="10" pointer-events="none"/><g fill="#000000" font-family="Helvetica" clip-path="url(#mx-clip-305-114-120-24-0)" font-size="12px"><text x="306.5" y="126.5">quantity</text></g><path d="M 270 108 M 300 108 L 300 134 M 270 134" fill="none" stroke="#000000" stroke-miterlimit="10" pointer-events="none"/><path d="M 270 134 M 430 134 M 430 160 M 270 160" fill="none" stroke="#000000" stroke-miterlimit="10" pointer-events="none"/><g fill="#000000" font-family="Helvetica" clip-path="url(#mx-clip-305-140-120-24-0)" font-size="12px"><text x="306.5" y="152.5">unit_price</text></g><path d="M 270 134 M 300 134 L 300 160 M 270 160" fill="none" stroke="#000000" stroke-miterlimit="10" pointer-events="none"/><path d="M 270 160 M 430 160 M 430 170 M 270 170" fill="none" stroke="#000000" stroke-miterlimit="10" pointer-events="none"/><path d="M 270 160 M 300 160 L 300 170 M 270 170" fill="none" stroke="#000000" stroke-miterlimit="10" pointer-events="none"/><path d="M 160 203 L 180 203 Q 190 203 195.21 194.46 L 234.79 129.54 Q 240 121 250 121 L 270 121" fill="none" stroke="#000000" stroke-miterlimit="10" pointer-events="none"/><path d="M 164 199 L 164 207 M 168 199 L 168 207" fill="none" stroke="#000000" stroke-miterlimit="10" pointer-events="none"/><path d="M 262 125 L 262 117 M 270 117 L 262 121 L 270 125" fill="none" stroke="#000000" stroke-miterlimit="10" pointer-events="none"/><path d="M 160 41 L 180 41 Q 190 41 198.73 45.89 L 231.27 64.11 Q 240 69 250 69 L 270 69" fill="none" stroke="#000000" stroke-miterlimit="10" pointer-events="none"/><path d="M 164 37 L 164 45 M 168 37 L 168 45" fill="none" stroke="#000000" stroke-miterlimit="10" pointer-events="none"/><path d="M 262 73 L 262 65 M 270 65 L 262 69 L 270 73" fill="none" stroke="#000000" stroke-miterlimit="10" pointer-events="none"/></g></svg>